<?xml version="1.0" encoding="UTF-8"?>
<svg xmlns="http://www.w3.org/2000/svg" xmlns:xlink="http://www.w3.org/1999/xlink" viewBox="0 0 100 100" width="100px" height="100px">
<g id="surface88369653">
<path style=" stroke:none;fill-rule:nonzero;fill:#f6f0b7;fill-opacity:1;" d="M 50 15 C 30.683594 15 15 30.683594 15 50 C 15 69.316406 30.683594 85 50 85 C 69.316406 85 85 69.316406 85 50 C 85 30.683594 69.316406 15 50 15 Z M 50 17 C 68.238281 17 83 31.761719 83 50 C 83 68.238281 68.238281 83 50 83 C 31.761719 83 17 68.238281 17 50 C 17 31.761719 31.761719 17 50 17 Z M 50 21 C 33.988281 21 21 33.988281 21 50 C 21 66.011719 33.988281 79 50 79 C 56.257812 79 62.058594 77.015625 66.796875 73.644531 C 66.945312 73.539062 67.027344 73.367188 67.011719 73.183594 C 66.996094 73.003906 66.882812 72.847656 66.71875 72.773438 C 66.554688 72.699219 66.363281 72.71875 66.21875 72.828125 C 64.023438 74.386719 61.597656 75.628906 59 76.511719 L 59 67.65625 C 59 65.363281 57.875 63.332031 56.199219 62 L 56.949219 62 C 64.125 62 69.957031 56.21875 69.957031 49.039062 C 69.957031 45.679688 68.632812 42.648438 66.542969 40.339844 C 66.917969 38.070312 66.871094 35.039062 65.972656 32.339844 C 65.90625 32.136719 65.714844 32 65.5 32 C 60.910156 32 57.378906 35.296875 56.632812 36 L 44.167969 36 C 43.46875 35.335938 40.089844 32 35.5 32 C 35.285156 32 35.09375 32.136719 35.023438 32.339844 C 34.226562 34.734375 33.953125 37.46875 34.160156 39.597656 C 31.644531 41.96875 30.046875 45.308594 30.046875 49.039062 C 30.046875 56.21875 35.875 61.996094 43.054688 61.996094 L 44.046875 61.996094 C 42.6875 62.984375 41.625 64.292969 41.214844 65.96875 C 40.285156 65.960938 39.242188 65.925781 38.28125 65.675781 C 37.21875 65.402344 36.304688 64.917969 35.734375 64.0625 C 34.484375 62.191406 33.554688 61.210938 32.710938 60.6875 C 31.867188 60.164062 31.113281 60.148438 30.5 60.148438 C 30.109375 60.148438 29.75 60.25 29.476562 60.476562 C 29.199219 60.703125 29.046875 61.046875 29.027344 61.390625 C 28.988281 62.082031 29.367188 62.785156 30.046875 63.464844 C 31.277344 64.695312 31.183594 64.566406 32.410156 67.023438 C 33.488281 69.179688 36.234375 70.835938 41 70.953125 L 41 76.511719 C 29.949219 72.765625 22 62.320312 22 50 C 22 34.53125 34.53125 22 50 22 C 65.46875 22 78 34.53125 78 50 C 78 52.886719 77.5625 55.667969 76.753906 58.285156 C 76.695312 58.460938 76.734375 58.652344 76.855469 58.785156 C 76.980469 58.921875 77.164062 58.980469 77.34375 58.9375 C 77.519531 58.894531 77.660156 58.757812 77.710938 58.582031 C 78.546875 55.871094 79 52.988281 79 50 C 79 33.988281 66.011719 21 50 21 Z M 35.886719 33.066406 C 39.90625 33.269531 43.03125 36.285156 43.652344 36.867188 C 43.746094 36.953125 43.867188 37 43.996094 37 L 56.796875 37 C 56.925781 37 57.046875 36.949219 57.140625 36.863281 C 57.710938 36.324219 61.066406 33.277344 65.101562 33.070312 C 65.832031 35.542969 65.90625 38.367188 65.546875 40.378906 C 65.515625 40.53125 65.566406 40.691406 65.675781 40.808594 C 67.703125 42.960938 68.957031 45.847656 68.957031 49.039062 C 68.957031 55.675781 63.589844 61 56.949219 61 L 54.5 61 C 54.265625 61 54.058594 61.164062 54.011719 61.394531 C 53.960938 61.625 54.078125 61.855469 54.292969 61.957031 C 56.4375 62.9375 58 65.140625 58 67.65625 L 58 76.824219 C 55.464844 77.578125 52.78125 78 50 78 C 47.21875 78 44.535156 77.589844 42 76.835938 L 42 70.5 C 42 70.222656 41.777344 70 41.5 70 C 36.613281 70 34.214844 68.394531 33.304688 66.578125 C 32.078125 64.117188 31.984375 63.988281 30.753906 62.757812 C 30.203125 62.207031 30.015625 61.679688 30.027344 61.449219 C 30.035156 61.332031 30.058594 61.289062 30.113281 61.25 C 30.164062 61.207031 30.277344 61.152344 30.5 61.152344 C 31.113281 61.152344 31.539062 61.136719 32.183594 61.539062 C 32.828125 61.9375 33.691406 62.804688 34.902344 64.621094 C 35.648438 65.742188 36.824219 66.332031 38.027344 66.644531 C 39.230469 66.957031 40.484375 67 41.5 67 C 41.746094 67 41.953125 66.820312 41.992188 66.582031 C 42.328125 64.527344 43.84375 62.808594 45.707031 61.953125 C 45.921875 61.855469 46.039062 61.621094 45.988281 61.390625 C 45.941406 61.160156 45.734375 60.996094 45.5 61 L 43.050781 61 C 36.414062 61 31.046875 55.675781 31.046875 49.039062 C 31.046875 45.511719 32.570312 42.363281 34.988281 40.167969 C 35.109375 40.058594 35.167969 39.898438 35.148438 39.738281 C 34.933594 37.882812 35.207031 35.308594 35.886719 33.070312 Z M 36.171875 41.972656 C 36.042969 41.980469 35.921875 42.039062 35.832031 42.132812 C 34.941406 43.058594 34.246094 44.125 33.777344 45.28125 C 33.703125 45.449219 33.722656 45.640625 33.835938 45.789062 C 33.945312 45.933594 34.125 46.007812 34.304688 45.980469 C 34.484375 45.953125 34.636719 45.828125 34.703125 45.65625 C 35.125 44.621094 35.746094 43.664062 36.554688 42.824219 C 36.699219 42.679688 36.738281 42.457031 36.652344 42.269531 C 36.570312 42.082031 36.378906 41.964844 36.171875 41.972656 Z M 33.636719 47.019531 C 33.398438 47.035156 33.203125 47.214844 33.171875 47.449219 C 33.085938 47.96875 33.046875 48.5 33.046875 49.039062 C 33.046875 49.566406 33.085938 50.089844 33.167969 50.597656 C 33.1875 50.78125 33.304688 50.941406 33.476562 51.011719 C 33.648438 51.078125 33.84375 51.046875 33.988281 50.929688 C 34.128906 50.808594 34.191406 50.621094 34.152344 50.441406 C 34.082031 49.984375 34.046875 49.515625 34.046875 49.039062 C 34.046875 48.554688 34.085938 48.074219 34.15625 47.605469 C 34.183594 47.453125 34.140625 47.300781 34.039062 47.1875 C 33.9375 47.074219 33.789062 47.011719 33.632812 47.019531 Z M 34.195312 51.980469 C 34.027344 51.976562 33.871094 52.0625 33.777344 52.199219 C 33.679688 52.339844 33.664062 52.515625 33.726562 52.667969 C 34.984375 55.894531 37.871094 58.3125 41.371094 58.90625 C 41.554688 58.949219 41.742188 58.886719 41.863281 58.746094 C 41.984375 58.605469 42.019531 58.40625 41.949219 58.234375 C 41.882812 58.0625 41.722656 57.941406 41.539062 57.921875 C 38.390625 57.386719 35.789062 55.207031 34.65625 52.308594 C 34.585938 52.113281 34.402344 51.984375 34.195312 51.980469 Z M 76.511719 59.9375 C 76.308594 59.945312 76.132812 60.070312 76.0625 60.257812 C 75.074219 62.769531 73.734375 65.097656 72.097656 67.195312 C 71.929688 67.414062 71.96875 67.726562 72.1875 67.898438 C 72.40625 68.066406 72.71875 68.027344 72.886719 67.8125 C 74.578125 65.640625 75.96875 63.226562 76.992188 60.625 C 77.058594 60.46875 77.035156 60.289062 76.9375 60.148438 C 76.839844 60.007812 76.679688 59.929688 76.511719 59.9375 Z M 70.761719 68.988281 C 70.632812 68.996094 70.511719 69.054688 70.425781 69.152344 C 69.753906 69.867188 69.046875 70.546875 68.300781 71.1875 C 68.160156 71.304688 68.09375 71.488281 68.128906 71.667969 C 68.160156 71.84375 68.289062 71.992188 68.460938 72.050781 C 68.632812 72.109375 68.824219 72.066406 68.957031 71.945312 C 69.726562 71.28125 70.460938 70.578125 71.15625 69.835938 C 71.292969 69.695312 71.332031 69.484375 71.257812 69.300781 C 71.1875 69.117188 71.011719 68.996094 70.816406 68.988281 C 70.796875 68.988281 70.78125 68.988281 70.765625 68.988281 Z M 70.761719 68.988281 "/>
</g>
</svg>
